<svg width="451" height="148" viewBox="0 0 451 148" fill="none" xmlns="http://www.w3.org/2000/svg">
<path d="M104.893 81.8347L102.955 80.5593L48.6035 44.7975C47.8986 44.3777 47.2106 44.1521 46.5957 44.152C44.6173 44.152 43.008 45.7606 43.0078 47.739V101.117C43.0079 103.095 44.6173 104.704 46.5957 104.704H50.4307V117.046H46.5957C37.8153 117.046 30.75 109.98 30.75 101.2V47.8229C30.75 39.0426 37.8153 31.9772 46.5957 31.9772C49.6698 31.9773 52.752 32.8805 55.3037 34.612H55.3047L104.346 67.9733L104.893 68.3454V81.8347Z" fill="#3C7DFF" stroke="#3C7DFF" stroke-width="2.5"/>
<path d="M111.568 31.9772C120.349 31.9772 127.414 39.0426 127.414 47.8229V101.2C127.414 109.98 120.349 117.046 111.568 117.046C108.494 117.046 105.412 116.142 102.86 114.411H102.859L53.8184 81.0495L53.2715 80.6774V67.1911L55.207 68.4626L109.552 104.136C110.26 104.56 110.951 104.788 111.568 104.788C113.547 104.788 115.156 103.178 115.156 101.2V47.8229C115.156 45.8444 113.547 44.235 111.568 44.235H107.733V31.9772H111.568Z" fill="#3C7DFF" stroke="#3C7DFF" stroke-width="2.5"/>
<path fill-rule="evenodd" clip-rule="evenodd" d="M369.22 56.1629V115.796H393.789V56.1629H418.88V32.3098L383.452 32.3079L369.22 56.1629ZM369.22 56.1629L383.452 32.3079L368.105 32.3098L352.65 55.7335L369.22 56.1629Z" fill="#030E1F"/>
<path fill-rule="evenodd" clip-rule="evenodd" d="M279.292 115.486L307.796 72.6695L282.035 32L309.943 32.002L337.612 70.9998L304.75 115.488L279.292 115.486ZM323.974 93.9864L339.089 115.488L364.236 115.486L339.089 74.4328L323.974 93.9864ZM339.089 67.9248L325.856 49.4455L337.612 32.002L363.731 32L339.089 67.9248Z" fill="#030E1F"/>
<path d="M227.824 115.79V32.304H277.438L292.154 56.157H252.392V63.3129H277.438V84.7807H252.392V91.9366H290.845L274.778 115.792L227.824 115.79Z" fill="#030E1F"/>
<path d="M149.164 115.792V32.3059H177.191L199.971 72.2598V32.3059H223.824V115.792H198.897L173.017 71.4249V115.792H149.164Z" fill="#030E1F"/>
</svg>
